<svg width="25" height="24" viewBox="0 0 25 24" fill="none" xmlns="http://www.w3.org/2000/svg">
<path d="M12.5 22C18.2532 22 22.9167 17.523 22.9167 12C22.9167 6.477 18.2532 2 12.5 2C6.74692 2 2.08337 6.477 2.08337 12C2.08337 17.523 6.74692 22 12.5 22Z" stroke="black" stroke-width="1.5" stroke-linecap="round" stroke-linejoin="round"/>
<path d="M8.33331 3H9.37497C7.34376 8.84157 7.34376 15.1584 9.37497 21H8.33331M15.625 3C17.6562 8.84157 17.6562 15.1584 15.625 21" stroke="black" stroke-width="1.5" stroke-linecap="round" stroke-linejoin="round"/>
<path d="M3.125 16V15C9.20997 16.95 15.79 16.95 21.875 15V16M3.125 9.00001C9.20997 7.05004 15.79 7.05004 21.875 9.00001" stroke="black" stroke-width="1.5" stroke-linecap="round" stroke-linejoin="round"/>
</svg>
