<svg xmlns="http://www.w3.org/2000/svg" width="24" height="24" fill="none">
  <mask id="a" fill="#fff">
    <path d="M12.0032 20.5v-6.6837Zm-1.93-17.86374-6.93001 5.55c-.78.62-1.28 1.93004-1.11 2.91004l1.33 7.96c.24 1.42 1.6 2.57 3.04 2.57H17.6032c1.43 0 2.8-1.16 3.04-2.57l1.33-7.96c.16-.98-.34-2.29004-1.11-2.91004l-6.93-5.54c-1.07-.86-2.8-.86-3.86-.01Z"/>
  </mask>
  <path fill="#000" d="M12.0032 20.5v-6.6837Zm-1.93-17.86374-6.93001 5.55c-.78.62-1.28 1.93004-1.11 2.91004l1.33 7.96c.24 1.42 1.6 2.57 3.04 2.57H17.6032c1.43 0 2.8-1.16 3.04-2.57l1.33-7.96c.16-.98-.34-2.29004-1.11-2.91004l-6.93-5.54c-1.07-.86-2.8-.86-3.86-.01Z"/>
  <path fill="#fff" d="M11.0032 20.5c0 .5523.4477 1 1 1s1-.4477 1-1h-2Zm2-6.6837c0-.5523-.4477-1-1-1s-1 .4477-1 1h2Zm-2.93-11.18004.6251.78053.0005-.00038-.6256-.78015Zm-6.93001 5.55.62225.78282.00286-.00229-.62511-.78053Zm-1.11 2.91004.98635-.1648-.00106-.0062-.98529.171Zm1.33 7.96-.98632.1648.00031.0018.98601-.1666Zm17.28001 0 .9858.1678.0005-.003-.9863-.1648Zm1.33-7.96.9863.1648.0006-.0037-.9869-.1611Zm-1.11-2.91004.6272-.7789-.0028-.00219-.6244.78109Zm-6.93-5.54-.6265.77944.0021.00164.6244-.78108ZM13.0032 20.5V13.8163h-2V20.5h2ZM9.44809 1.85572l-6.93 5.55L3.7683 8.96679l6.93-5.55-1.25021-1.56107ZM2.52095 7.40343c-.5635.44791-.97514 1.09587-1.22332 1.74637-.24812.65036-.37278 1.408-.24972 2.1174l1.97057-.3419c-.04694-.2706-.0066-.6579.14778-1.06259.15432-.4045.38267-.72154.59918-.89363L2.52095 7.40343ZM1.04687 11.2611l1.33 7.96 1.97265-.3296-1.33-7.96-1.97265.3296Zm1.33031 7.9618c.32127 1.9009 2.09775 3.4034 4.02601 3.4034v-2c-.95173 0-1.89525-.7976-2.05398-1.7367l-1.97203.3333Zm4.02601 3.4034H17.6032v-2H6.40319v2Zm11.20001 0c1.9192 0 3.7043-1.5133 4.0258-3.4022l-1.9716-.3356c-.1585.931-1.1134 1.7378-2.0542 1.7378v2Zm4.0263-3.4052 1.33-7.96-1.9726-.3296-1.33 7.96 1.9726.3296Zm1.3306-7.9637c.1153-.7058-.0117-1.45977-.2588-2.1076-.2471-.64757-.6544-1.29433-1.2109-1.74244L20.236 8.96515c.2135.17189.4412.49013.5966.89756.1554.40719.1984.79829.1537 1.07239l1.9738.3223Zm-1.4725-3.85223-6.93-5.54-1.2488 1.56217 6.93 5.54 1.2488-1.56217Zm-6.9279-5.53836c-1.434-1.152494-3.6846-1.155412-5.1121-.0107l1.2512 1.5603c.6925-.5553 1.9018-.55821 2.6079.00929l1.253-1.55889Z" mask="url(#a)"/>
</svg>
