<svg xmlns="http://www.w3.org/2000/svg" width="20" height="20" fill="none"><g stroke="#000" stroke-linecap="round" stroke-linejoin="round" stroke-width="1.5" clip-path="url(#a)"><path stroke-miterlimit="10" d="M7.08333 15.8333h-.41667c-3.33333 0-5-.8333-5-5V6.66667c0-3.33333 1.66667-5 5-5h6.66664c3.3334 0 5 1.66667 5 5v4.16663c0 3.3334-1.6666 5-5 5h-.4166c-.2584 0-.5084.125-.6667.3334L11 17.8333c-.55.7334-1.45.7334-2 0l-1.25-1.6666c-.13334-.1834-.44167-.3334-.66667-.3334Z"/><path d="M5.83334 6.66667h8.33336M5.83334 10.8333h4.99996"/></g><defs><clipPath id="a"><path fill="#fff" d="M0 0h20v20H0z"/></clipPath></defs></svg>