<svg xmlns="http://www.w3.org/2000/svg" width="24" height="24" fill="none"><path stroke="#000" stroke-linecap="round" stroke-linejoin="round" stroke-opacity=".7" stroke-width="1.5" d="m22 22-2-2m-8.5 1c1.2476 0 2.4829-.2457 3.6355-.7231 1.1526-.4775 2.1999-1.1772 3.082-2.0594.8822-.8821 1.5819-1.9294 2.0594-3.082C20.7543 13.9829 21 12.7476 21 11.5c0-1.2476-.2457-2.4829-.7231-3.63549-.4775-1.1526-1.1772-2.19987-2.0594-3.08202-.8821-.88216-1.9294-1.58193-3.082-2.05935C13.9829 2.24572 12.7476 2 11.5 2 8.98044 2 6.56408 3.00089 4.78249 4.78249 3.00089 6.56408 2 8.98044 2 11.5c0 2.5196 1.00089 4.9359 2.78249 6.7175C6.56408 19.9991 8.98044 21 11.5 21Z"/></svg>