<svg xmlns="http://www.w3.org/2000/svg" width="24" height="24" fill="none"><path stroke="#000" stroke-linecap="round" stroke-linejoin="round" stroke-opacity=".7" stroke-width="1.5" d="M20.59 22c0-3.87-3.85-7-8.59-7s-8.59 3.13-8.59 7M12 12c1.3261 0 2.5979-.5268 3.5355-1.4645C16.4732 9.59785 17 8.32608 17 7c0-1.32608-.5268-2.59785-1.4645-3.53553C14.5979 2.52678 13.3261 2 12 2c-1.3261 0-2.59785.52678-3.53553 1.46447C7.52679 4.40215 7 5.67392 7 7c0 1.32608.52679 2.59785 1.46447 3.5355C9.40215 11.4732 10.6739 12 12 12Z"/></svg>