<svg xmlns="http://www.w3.org/2000/svg" width="23" height="22" fill="none"><path fill="#6C5ECF" d="M0 4c0-2.20914 1.79086-4 4-4h15c2.2091 0 4 1.79086 4 4v9.1111c0 2.2091-1.7909 4-4 4H9.95883c-.11867 0-.23347.0422-.32388.1191l-4.78607 4.0693c-.32473.2761-.82388.0453-.82388-.3809v-3.3603c0-.247-.20023-.4472-.44722-.4472C1.60183 17.1111 0 15.5093 0 13.5333V4Z"/><ellipse cx="6.9" cy="8.55523" fill="#1F1D2B" rx="1.15" ry="1.22222"/><ellipse cx="11.4996" cy="8.55523" fill="#1F1D2B" rx="1.15" ry="1.22222"/><ellipse cx="16.1002" cy="8.55523" fill="#1F1D2B" rx="1.15" ry="1.22222"/></svg>