<svg xmlns="http://www.w3.org/2000/svg" width="20" height="18" fill="none"><path fill="#808191" fill-rule="evenodd" d="M4 0C1.79086 0 0 1.79086 0 4v6.8889C0 12.6071 1.39289 14 3.11111 14c.21478 0 .38889.1741.38889.3889v2.5708c0 .4192.48497.6523.81235.3904l4.05069-3.2405c.08866-.071.19881-.1096.31235-.1096H16c2.2091 0 4-1.7909 4-4V4c0-2.20914-1.7909-4-4-4H4Zm2 8c.55228 0 1-.44772 1-1s-.44772-1-1-1-1 .44772-1 1 .44772 1 1 1Zm5-1c0 .55228-.4477 1-1 1-.55229 0-1-.44772-1-1s.44771-1 1-1c.5523 0 1 .44772 1 1Zm3 1c.5523 0 1-.44772 1-1s-.4477-1-1-1-1 .44772-1 1 .4477 1 1 1Z" clip-rule="evenodd"/></svg>