<svg xmlns="http://www.w3.org/2000/svg" width="21" height="20" fill="none"><path fill="#808191" fill-rule="evenodd" d="M9.85537.221735c.37913-.2956465.91013-.2956465 1.28923 0l9.45 7.368425c.4577.35691.5402 1.01825.1842 1.47715-.356.45889-1.0157.54156-1.4735.18464l-.4054-.31611v8.95886c0 1.1627-.9402 2.1053-2.1 2.1053H4.19998c-1.15979 0-2.09999-.9426-2.09999-2.1053V8.93592l-.40531.31603c-.45774.35692-1.117431.27425-1.473453-.18464-.356021-.4589-.2735607-1.12024.184182-1.47715L9.85537.221735ZM9.44996 12.6316c-.5799 0-1.05.4713-1.05 1.0526V20h4.19994v-6.3158c0-.5813-.4701-1.0526-1.05-1.0526H9.44996Z" clip-rule="evenodd"/></svg>