<svg xmlns="http://www.w3.org/2000/svg" width="16" height="17" fill="none"><path fill="#6C5ECF" d="M0 7.737C0 6.342 1.194 5.21 2.667 5.21h10.666C14.806 5.21 16 6.342 16 7.737v6.737C16 15.869 14.806 17 13.333 17H2.667C1.194 17 0 15.869 0 14.474V7.737Z"/><path stroke="#6C5ECF" stroke-linecap="round" stroke-linejoin="round" stroke-width="2" d="M4.444 5.21C4.444 3.527 4.89 1 8 1s3.555 2.526 3.556 4.21"/><path fill="#6C5ECF" stroke="#2B2937" d="M9.278 10.263c0 .629-.547 1.184-1.278 1.184-.732 0-1.278-.555-1.278-1.184 0-.629.546-1.184 1.278-1.184.731 0 1.278.555 1.278 1.184Z"/><path stroke="#2B2937" stroke-linecap="round" stroke-linejoin="round" stroke-width="2" d="M8 12.79v-2.527"/></svg>