<svg xmlns="http://www.w3.org/2000/svg" width="18" height="18" fill="none"><path fill="#38ABBE" fill-rule="evenodd" d="M.666016 6.49984c0-3.22166 2.611674-5.833336 5.833334-5.833336H13.166c.4603 0 .8333.373096.8333.833336 0 .46023-.373.83333-.8333.83333H6.49935c-2.30119 0-4.16667 1.86548-4.16667 4.16667v6.66666c0 .4602-.37309.8333-.83333.8333-.46024 0-.833334-.3731-.833334-.8333V6.49984Z" clip-rule="evenodd"/><path fill="#38ABBE" d="M3.99935 7.33317c0-1.84095 1.49238-3.33333 3.33333-3.33333h6.66662c1.841 0 3.3334 1.49238 3.3334 3.33333v6.66663c0 1.841-1.4924 3.3334-3.3334 3.3334H7.33268c-1.84095 0-3.33333-1.4924-3.33333-3.3334V7.33317Z"/></svg>