<svg xmlns="http://www.w3.org/2000/svg" width="16" height="16" fill="none"><path fill="#6C5ECF" d="M8 12.4444c2.4546 0 4.4444-1.9898 4.4444-4.4444S10.4546 3.55556 8 3.55556 3.55556 5.5454 3.55556 8 5.5454 12.4444 8 12.4444Z"/><path fill="#6C5ECF" fill-rule="evenodd" d="M16 8c0 4.4183-3.5817 8-8 8-4.41828 0-8-3.5817-8-8 0-4.41828 3.58172-8 8-8 4.4183 0 8 3.58172 8 8Zm-1.7778 0c0 3.4364-2.7858 6.2222-6.2222 6.2222-3.43644 0-6.22222-2.7858-6.22222-6.2222 0-3.43644 2.78578-6.22222 6.22222-6.22222 3.4364 0 6.2222 2.78578 6.2222 6.22222Z" clip-rule="evenodd"/></svg>